# xmcd CD database file
#
# Track frame offsets:
#	187
#	18375
#	37943
#	52892
#	68142
#	89843
#	100407
#	115913
#	135566
#	155616
#
# Disc length: 2373 seconds
#
# Revision: 0
# Processed by: cddbd v1.5.1PL2 Copyright (c) Steve Scherf et al.
# Submitted via: CDex 1.51
#
DISCID=8109430a
DTITLE=秋本奈緒美 - 4SEASONS
DYEAR=1900
DGENRE=J-Pop
TTITLE0=CAPRICORN WOMAN
TTITLE1=DANCE,SHALL WE DANCE
TTITLE2=HE'S SO TRENDY
TTITLE3=DREAM ON FIRE
TTITLE4=FOR YOU
TTITLE5=BAD IMAGINATION
TTITLE6=HONEY BEE
TTITLE7=JINX
TTITLE8=SORRY
TTITLE9=STAY WITH ME
EXTD=
EXTT0=
EXTT1=
EXTT2=
EXTT3=
EXTT4=
EXTT5=
EXTT6=
EXTT7=
EXTT8=
EXTT9=
PLAYORDER=
